<?xml version="1.0" encoding="iso-8859-1"?>
<!-- Generator: Adobe Illustrator 19.0.0, SVG Export Plug-In . SVG Version: 6.00 Build 0)  -->
<svg version="1.1" id="Layer_1" xmlns="http://www.w3.org/2000/svg" xmlns:xlink="http://www.w3.org/1999/xlink" x="0px" y="0px"
	 viewBox="0 0 508 508" style="enable-background:new 0 0 508 508;" xml:space="preserve">
<circle style="fill:#90DFAA;" cx="254" cy="254" r="254"/>
<rect x="185.183" y="201.014" transform="matrix(-0.6939 -0.7201 0.7201 -0.6939 234.8233 525.8541)" style="fill:#2B3B4E;" width="88.002" height="24"/>
<g>
	<path style="fill:#324A5E;" d="M121.6,194.4c-8.8-16.4-2.8-40,14-56.4c50.8-50.4,108.8-52.4,136.8-49.6c4,0.4,3.6,6.4-0.8,8
		c-11.6,4-21.2,8.8-29.6,14c-25.2,15.2-34,47.6-17.6,64.8l2.8,2.8c1.2,1.2,0.8,3.2-0.8,4.8l-26,25.2c-1.2,1.2-3.2,1.6-4.4,0.8
		c-8.8-7.2-22-8.4-35.2-4C138.8,212.4,127.2,205.2,121.6,194.4z"/>
	<path style="fill:#324A5E;" d="M144,228l-18,17.2c-4.8,4.8-12.4,4.4-17.2-0.4l-29.2-30c-4.8-4.8-4.4-12.4,0.4-17.2l18-17.2
		c4.8-4.8,12.4-4.4,17.2,0.4l29.2,30C149.2,216,148.8,223.6,144,228z"/>
</g>
<path style="fill:#FFFFFF;" d="M249.6,240.8l7.2-6.8c5.2-4.8,13.6-4,20,1.6L402,353.2c6.8,6.4,7.6,16,2.4,21.2l-19.6,18.8
	c-5.6,5.2-15.2,4-21.2-3.2L250.4,260.8C244.8,254.4,244.4,245.6,249.6,240.8z"/>
<g>
</g>
<g>
</g>
<g>
</g>
<g>
</g>
<g>
</g>
<g>
</g>
<g>
</g>
<g>
</g>
<g>
</g>
<g>
</g>
<g>
</g>
<g>
</g>
<g>
</g>
<g>
</g>
<g>
</g>
</svg>
